PathFileType	4	(X/Y/Z)	Run_300 02
DataRate	CameraRate	NumFrames	NumMarkers	Units	OrigDataRate	OrigDataStartFrame	OrigNumFrames
100	100	5	45	mm	100	491	137
Frame#	Time	LASI			RASI			LPSI			RPSI			RTH1			RTH2			RTH3			LTH1			LTH2			LTH3			RTB1			RTB2			RTB3			RLMAL			RMMAL			LTB1			LTB2			LTB3			RCAL			RTOE			RMT5			LCAL			LTOE			LMT5			LACR			RACR			CLAV			C7			LPSH			RUA1			RUA2			RUA3			RLEL			RMEL			LUA1			LUA2			LUA3			LLEL			LMEL			RFAsuperior			RFAradius			RFAulna			LFAsuperior			LFAradius			LFAulna		
		X1	Y1	Z1	X2	Y2	Z2	X3	Y3	Z3	X4	Y4	Z4	X5	Y5	Z5	X6	Y6	Z6	X7	Y7	Z7	X8	Y8	Z8	X9	Y9	Z9	X10	Y10	Z10	X11	Y11	Z11	X12	Y12	Z12	X13	Y13	Z13	X14	Y14	Z14	X15	Y15	Z15	X16	Y16	Z16	X17	Y17	Z17	X18	Y18	Z18	X19	Y19	Z19	X20	Y20	Z20	X21	Y21	Z21	X22	Y22	Z22	X23	Y23	Z23	X24	Y24	Z24	X25	Y25	Z25	X26	Y26	Z26	X27	Y27	Z27	X28	Y28	Z28	X29	Y29	Z29	X30	Y30	Z30	X31	Y31	Z31	X32	Y32	Z32	X33	Y33	Z33	X34	Y34	Z34	X35	Y35	Z35	X36	Y36	Z36	X37	Y37	Z37	X38	Y38	Z38	X39	Y39	Z39	X40	Y40	Z40	X41	Y41	Z41	X42	Y42	Z42	X43	Y43	Z43	X44	Y44	Z44	X45	Y45	Z45	

491	  4.910000	927.383257	1044.477169	-459.856342	940.071525	1042.885443	-226.481790	764.487628	1081.804727	-387.136889	768.577718	1083.247080	-297.167723	834.374123	788.275047	-179.883625	898.107831	713.697212	-217.077155	817.977634	618.976462	-217.505178	898.296113	829.835421	-502.263298	1024.283089	773.407968	-496.312527	1024.963512	667.523006	-483.248414	789.303367	371.523441	-279.286315	726.142141	337.513448	-239.288528	681.722498	221.451413	-288.283360	588.508982	145.896661	-273.547647	616.207666	156.875490	-355.355218	1030.279775	473.558982	-445.873964	895.591101	473.756978	-465.310220	871.787375	364.780984	-432.116359	520.400534	133.327218	-339.785920	727.706517	 64.396817	-306.100805	655.404821	 59.588185	-238.429902	693.269024	341.929546	-381.403668	826.562433	164.711089	-414.017613	771.537297	199.452439	-477.879735	875.310088	1556.644680	-484.435892	936.233880	1519.523455	-175.877357	983.400298	1470.516968	-322.583835	869.308648	1562.394211	-320.270320	790.845754	1526.616004	-476.036689	881.172041	1409.399023	-62.605981	793.134904	1376.049301	-60.139412	792.449501	1341.147621	  0.816171	795.968137	1288.198544	 46.073171	753.769897	1249.638957	-27.639987	759.844415	1463.062519	-536.863014	691.744128	1398.093604	-513.029710	675.645131	1368.773877	-580.581007	651.844309	1298.900134	-613.747136	642.682921	1275.162913	-528.111593	852.697836	1240.825373	 20.998400	1009.010857	1295.983819	-87.718601	1001.920465	1226.196965	-86.562491	712.050437	1221.335681	-606.455216	884.333611	1222.938686	-578.239138	865.778879	1160.881866	-600.580099	
492	  4.920000	930.035757	1053.219533	-460.672482	943.327911	1049.126483	-229.048680	767.642209	1090.384837	-387.904062	772.037193	1090.749970	-297.928971	827.997916	795.784797	-181.633123	887.920939	718.904538	-219.002163	803.117348	627.755457	-216.933570	901.961883	839.802439	-504.366493	1028.158002	784.759610	-497.373840	1029.867794	678.406571	-484.263376	766.682598	380.039735	-277.052576	703.097980	346.788890	-237.073858	658.948511	230.319224	-285.900735	565.835607	154.212237	-271.855025	594.078650	164.945105	-353.044672	1044.403824	480.056566	-446.081125	910.186951	468.719807	-465.305069	895.611727	358.170891	-431.815878	498.287414	146.716045	-338.051735	696.823811	 63.335783	-305.782035	627.469396	 60.837704	-238.334491	719.464226	319.914999	-380.338998	868.329619	155.507157	-413.626532	810.018825	184.909670	-477.443531	871.286782	1564.551638	-484.939916	936.946434	1527.944779	-177.487979	983.011428	1479.474118	-324.666135	868.739606	1570.085097	-321.312086	787.355645	1534.547833	-474.176289	884.901522	1416.705459	-64.020107	797.361601	1382.632153	-60.360603	797.932823	1346.888059	  0.185767	802.461191	1293.451637	 44.799646	759.064041	1255.406527	-28.634908	754.719983	1472.042005	-533.454461	687.447818	1407.514825	-507.223181	668.717713	1378.015138	-574.111777	643.345653	1307.732934	-606.081594	636.902149	1285.062177	-519.977768	859.109532	1246.763778	 18.298368	1012.948206	1304.338236	-92.905834	1006.597443	1234.512140	-91.820027	703.778951	1230.378752	-599.324767	876.899862	1232.709665	-576.354105	857.969651	1170.184287	-597.069785	
493	  4.930000	932.269157	1062.122759	-461.673648	946.758228	1055.563966	-231.778199	770.679522	1099.148032	-388.510301	775.931723	1098.255594	-298.968063	822.224105	803.992348	-182.672687	878.713229	725.051929	-220.209565	789.700532	637.524152	-215.794711	904.618116	849.638352	-506.384973	1030.831183	795.099126	-498.613719	1033.191969	688.423706	-485.392570	745.810635	389.803491	-274.128822	681.860460	357.278841	-233.889687	638.201927	240.137284	-282.750145	545.143327	163.130895	-269.510230	574.357111	173.563939	-349.808712	1057.055851	485.809079	-446.403089	924.462002	462.541944	-465.506612	919.474660	351.184179	-431.545156	478.878884	161.088394	-336.169441	666.965814	 62.351931	-304.955105	600.087749	 62.296243	-237.713300	747.213146	297.154872	-379.588718	910.834883	147.386817	-412.853200	849.784162	170.803587	-476.809027	868.238678	1572.335730	-485.559387	937.764749	1536.561991	-179.074408	982.701128	1488.400879	-326.517602	868.384381	1577.960330	-322.313176	784.546629	1542.614003	-472.542660	887.931723	1424.278661	-65.645998	800.855370	1389.165341	-61.604115	802.282595	1352.844885	 -1.327164	807.853327	1298.871966	 42.853154	763.863140	1261.189983	-30.528098	750.569676	1480.928567	-530.188469	684.188140	1416.805980	-501.243670	662.731600	1387.373927	-567.402053	635.816008	1316.666844	-598.373956	632.066713	1295.000538	-511.833217	864.663140	1252.960931	 15.188842	1016.401878	1313.413836	-97.655043	1010.955997	1243.545692	-96.622930	696.373578	1239.330669	-592.218748	870.227953	1242.213172	-574.525973	850.916569	1179.242253	-593.562405	
494	  4.940000	933.817951	1071.049868	-462.858427	950.201269	1062.205316	-234.397843	773.436200	1107.791070	-389.168202	779.582094	1105.675412	-299.830327	817.263635	812.824192	-182.773940	870.417042	731.752703	-220.496187	777.646887	647.950363	-214.451204	906.375886	859.121084	-508.255927	1032.338061	804.254940	-499.825219	1034.888729	697.226321	-486.277761	726.889033	400.362900	-270.326473	662.328008	368.710281	-229.997643	619.591599	250.432799	-278.893123	526.490856	172.456593	-266.632449	557.290238	182.230955	-345.901421	1068.101288	490.630898	-447.037972	938.281921	455.239011	-465.974205	943.247372	343.885432	-431.397203	462.546306	176.243201	-334.099381	638.120623	 61.968323	-303.959706	573.196131	 64.331741	-236.710339	776.499211	274.093723	-379.342429	953.711072	140.466984	-411.827144	890.520575	157.321457	-476.011956	866.047804	1579.800635	-486.191229	938.731044	1545.028474	-180.644741	982.442708	1496.992913	-328.220919	868.215945	1585.662071	-323.270512	782.389842	1550.579790	-471.219278	890.278866	1431.810874	-67.420829	803.646451	1395.405668	-63.558320	805.629125	1358.709713	 -3.482508	812.246492	1304.242714	 40.434215	768.094485	1266.793215	-33.045562	747.307108	1489.528360	-527.304779	681.832705	1425.921113	-495.297663	657.759498	1396.598451	-560.638462	629.284656	1325.491119	-590.729804	628.236565	1304.742500	-503.827310	869.412662	1259.212569	 11.878424	1019.372407	1322.856476	-101.968000	1014.943690	1252.869773	-100.404599	689.863035	1247.989329	-585.300550	864.331402	1251.205337	-572.862911	844.646257	1187.823458	-590.067635	
495	  4.950000	934.899687	1079.720346	-464.355427	953.592402	1068.871110	-236.748377	776.013356	1115.994264	-389.901663	782.825352	1112.831509	-300.363716	813.300475	821.816594	-182.335776	862.964984	738.678651	-219.922161	766.903641	658.594618	-213.295854	907.537809	867.993169	-509.855519	1032.856283	812.009995	-500.855260	1034.855250	704.390449	-486.439908	710.168099	411.252684	-265.981724	644.595751	380.689278	-225.977452	603.141544	260.816682	-274.748035	509.917749	182.261950	-263.470049	542.724668	190.932267	-341.722284	1077.450996	494.268300	-448.032211	951.532253	446.868271	-466.740183	966.785924	336.353760	-431.457092	449.240432	192.274791	-331.729906	610.377607	 62.719561	-303.045540	547.095385	 67.790307	-235.725072	807.091671	251.191826	-379.487648	996.494259	135.028765	-410.710682	931.841109	144.844453	-475.107472	864.476161	1586.823826	-486.796770	939.779101	1553.022118	-182.230465	982.278984	1504.956937	-329.877778	868.202751	1592.886249	-324.221985	780.812892	1558.208638	-470.243889	892.096488	1439.029696	-69.290618	805.877484	1401.247491	-65.901366	808.193521	1364.253374	 -6.033965	815.762297	1309.417152	 37.756821	771.734026	1272.080985	-35.930167	744.737729	1497.711585	-524.857973	680.260464	1434.793817	-489.640091	653.802876	1405.414533	-554.051013	623.732542	1333.940784	-583.308213	625.392317	1314.049779	-496.082351	873.416765	1265.356162	  8.539930	1021.848654	1332.300147	-105.852577	1018.481141	1262.098735	-102.913791	684.261508	1256.172792	-578.617858	859.201480	1259.531763	-571.389893	839.175514	1195.777231	-586.624897	
